<?xml version="1.0" encoding="UTF-8" standalone="no"?>
<!DOCTYPE svg PUBLIC "-//W3C//DTD SVG 1.1//EN"
 "http://www.w3.org/Graphics/SVG/1.1/DTD/svg11.dtd">
<!-- Generated by graphviz version 2.44.0 ()
 -->
<!-- Title: ReduceSplitBy Pages: 1 -->
<svg width="474pt" height="182pt"
 viewBox="0.00 0.00 474.17 181.54" xmlns="http://www.w3.org/2000/svg" xmlns:xlink="http://www.w3.org/1999/xlink">
<g id="graph0" class="graph" transform="scale(1 1) rotate(0) translate(4 177.54)">
<title>ReduceSplitBy</title>
<polygon fill="white" stroke="transparent" points="-4,4 -4,-177.54 470.17,-177.54 470.17,4 -4,4"/>
<!-- PreVacant -->
<g id="node1" class="node">
<title>PreVacant</title>
<ellipse fill="none" stroke="black" cx="290.53" cy="-89.1" rx="47.4" ry="47.4"/>
<ellipse fill="none" stroke="black" cx="290.53" cy="-89.1" rx="51.39" ry="51.39"/>
<text text-anchor="middle" x="290.53" y="-85.4" font-family="Times,serif" font-size="14.00">PreVacant</text>
</g>
<!-- PreVacant&#45;&gt;PreVacant -->
<g id="edge8" class="edge">
<title>PreVacant&#45;&gt;PreVacant</title>
<path fill="none" stroke="black" d="M278.09,-139.04C279.21,-150.3 283.36,-158.54 290.53,-158.54 295.35,-158.54 298.8,-154.82 300.89,-148.97"/>
<polygon fill="black" stroke="black" points="304.34,-149.54 302.97,-139.04 297.49,-148.11 304.34,-149.54"/>
<text text-anchor="middle" x="290.53" y="-162.34" font-family="Times,serif" font-size="14.00">R</text>
</g>
<!-- Vacant -->
<g id="node2" class="node">
<title>Vacant</title>
<ellipse fill="none" stroke="black" cx="427.07" cy="-83.1" rx="35.18" ry="35.18"/>
<ellipse fill="none" stroke="black" cx="427.07" cy="-83.1" rx="39.19" ry="39.19"/>
<text text-anchor="middle" x="427.07" y="-79.4" font-family="Times,serif" font-size="14.00">Vacant</text>
</g>
<!-- PreVacant&#45;&gt;Vacant -->
<g id="edge5" class="edge">
<title>PreVacant:se&#45;&gt;Vacant:sw</title>
<path fill="none" stroke="black" d="M328.53,-52.1C350.85,-29.78 375.78,-22.71 399.07,-44 399.3,-44.21 399.46,-44.51 399.57,-44.88"/>
<polygon fill="black" stroke="black" points="396.08,-45.28 400.07,-55.1 403.08,-44.94 396.08,-45.28"/>
</g>
<!-- Vacant&#45;&gt;PreVacant -->
<g id="edge7" class="edge">
<title>Vacant&#45;&gt;PreVacant</title>
<path fill="none" stroke="black" d="M387.93,-84.8C376.78,-85.3 364.31,-85.85 352.14,-86.39"/>
<polygon fill="black" stroke="black" points="351.85,-82.9 342.01,-86.85 352.16,-89.9 351.85,-82.9"/>
<text text-anchor="middle" x="364.98" y="-88.9" font-family="Times,serif" font-size="14.00">R</text>
</g>
<!-- Vacant&#45;&gt;Vacant -->
<g id="edge6" class="edge">
<title>Vacant&#45;&gt;Vacant</title>
<path fill="none" stroke="black" d="M415.47,-120.44C415.82,-131.55 419.69,-140.19 427.07,-140.19 432.04,-140.19 435.41,-136.29 437.2,-130.36"/>
<polygon fill="black" stroke="black" points="440.66,-130.85 438.67,-120.44 433.74,-129.81 440.66,-130.85"/>
</g>
<!-- PreChunk -->
<g id="node3" class="node">
<title>PreChunk</title>
<ellipse fill="none" stroke="black" cx="47.45" cy="-75.1" rx="47.39" ry="47.39"/>
<text text-anchor="middle" x="47.45" y="-71.4" font-family="Times,serif" font-size="14.00">PreChunk</text>
</g>
<!-- PreChunk&#45;&gt;PreVacant -->
<g id="edge2" class="edge">
<title>PreChunk&#45;&gt;PreVacant</title>
<path fill="none" stroke="black" d="M93.06,-89.13C105.5,-92.41 119.11,-95.44 131.89,-97.1 163.86,-101.24 199.73,-99.89 229.17,-97.21"/>
<polygon fill="black" stroke="black" points="229.69,-100.68 239.3,-96.22 229.01,-93.71 229.69,-100.68"/>
</g>
<!-- Chunk -->
<g id="node4" class="node">
<title>Chunk</title>
<ellipse fill="none" stroke="black" cx="166.99" cy="-35.1" rx="35.19" ry="35.19"/>
<text text-anchor="middle" x="166.99" y="-31.4" font-family="Times,serif" font-size="14.00">Chunk</text>
</g>
<!-- PreChunk&#45;&gt;Chunk -->
<g id="edge1" class="edge">
<title>PreChunk&#45;&gt;Chunk</title>
<path fill="none" stroke="black" d="M92.55,-60.09C102.82,-56.59 113.72,-52.88 123.9,-49.42"/>
<polygon fill="black" stroke="black" points="125.05,-52.72 133.39,-46.19 122.8,-46.1 125.05,-52.72"/>
</g>
<!-- Chunk&#45;&gt;PreVacant -->
<g id="edge4" class="edge">
<title>Chunk&#45;&gt;PreVacant</title>
<path fill="none" stroke="black" d="M199.29,-49C209.83,-53.69 221.94,-59.07 233.79,-64.33"/>
<polygon fill="black" stroke="black" points="232.64,-67.65 243.2,-68.51 235.49,-61.26 232.64,-67.65"/>
</g>
<!-- Chunk&#45;&gt;Chunk -->
<g id="edge3" class="edge">
<title>Chunk&#45;&gt;Chunk</title>
<path fill="none" stroke="black" d="M157.24,-69.06C157.39,-79.75 160.64,-88.19 166.99,-88.19 171.15,-88.19 173.98,-84.56 175.48,-79.04"/>
<polygon fill="black" stroke="black" points="178.96,-79.41 176.73,-69.06 172.02,-78.54 178.96,-79.41"/>
</g>
</g>
</svg>
