<?xml version="1.0" encoding="UTF-8" standalone="no"?>
<!DOCTYPE svg PUBLIC "-//W3C//DTD SVG 1.1//EN"
 "http://www.w3.org/Graphics/SVG/1.1/DTD/svg11.dtd">
<!-- Generated by graphviz version 2.44.0 ()
 -->
<!-- Title: WordsXF Pages: 1 -->
<svg width="264pt" height="119pt"
 viewBox="0.00 0.00 264.29 119.19" xmlns="http://www.w3.org/2000/svg" xmlns:xlink="http://www.w3.org/1999/xlink">
<g id="graph0" class="graph" transform="scale(1 1) rotate(0) translate(4 115.19)">
<title>WordsXF</title>
<polygon fill="white" stroke="transparent" points="-4,4 -4,-115.19 260.29,-115.19 260.29,4 -4,4"/>
<!-- Vacant -->
<g id="node1" class="node">
<title>Vacant</title>
<ellipse fill="none" stroke="black" cx="191.29" cy="-39.1" rx="35.18" ry="35.18"/>
<ellipse fill="none" stroke="black" cx="191.29" cy="-39.1" rx="39.19" ry="39.19"/>
<text text-anchor="middle" x="191.29" y="-35.4" font-family="Times,serif" font-size="14.00">Vacant</text>
</g>
<!-- Vacant&#45;&gt;Vacant -->
<g id="edge3" class="edge">
<title>Vacant&#45;&gt;Vacant</title>
<path fill="none" stroke="black" d="M176.29,-75.34C176.45,-86.97 181.45,-96.19 191.29,-96.19 198.06,-96.19 202.54,-91.84 204.72,-85.33"/>
<polygon fill="black" stroke="black" points="208.2,-85.76 206.29,-75.34 201.28,-84.68 208.2,-85.76"/>
<text text-anchor="middle" x="191.29" y="-99.99" font-family="Times,serif" font-size="14.00">Union{Nothing,String}</text>
</g>
<!-- Chunk -->
<g id="node2" class="node">
<title>Chunk</title>
<ellipse fill="none" stroke="black" cx="35.1" cy="-39.1" rx="35.19" ry="35.19"/>
<text text-anchor="middle" x="35.1" y="-35.4" font-family="Times,serif" font-size="14.00">Chunk</text>
</g>
<!-- Chunk&#45;&gt;Vacant -->
<g id="edge2" class="edge">
<title>Chunk&#45;&gt;Vacant</title>
<path fill="none" stroke="black" d="M70.32,-39.1C91.42,-39.1 118.8,-39.1 142.07,-39.1"/>
<polygon fill="black" stroke="black" points="142.1,-42.6 152.1,-39.1 142.1,-35.6 142.1,-42.6"/>
<text text-anchor="middle" x="111.19" y="-42.9" font-family="Times,serif" font-size="14.00">Nothing</text>
</g>
<!-- Chunk&#45;&gt;Chunk -->
<g id="edge1" class="edge">
<title>Chunk&#45;&gt;Chunk</title>
<path fill="none" stroke="black" d="M20.86,-71.24C20.55,-82.78 25.3,-92.19 35.1,-92.19 41.83,-92.19 46.18,-87.75 48.14,-81.21"/>
<polygon fill="black" stroke="black" points="51.62,-81.58 49.33,-71.24 44.67,-80.75 51.62,-81.58"/>
<text text-anchor="middle" x="35.1" y="-95.99" font-family="Times,serif" font-size="14.00">Nothing</text>
</g>
</g>
</svg>
