<?xml version="1.0" encoding="UTF-8" standalone="no"?>
<!DOCTYPE svg PUBLIC "-//W3C//DTD SVG 1.1//EN"
 "http://www.w3.org/Graphics/SVG/1.1/DTD/svg11.dtd">
<!-- Generated by graphviz version 7.0.5 (20221223.1930)
 -->
<!-- Title: ReducePartitionBy Pages: 1 -->
<svg width="347pt" height="133pt"
 viewBox="0.00 0.00 347.38 133.49" xmlns="http://www.w3.org/2000/svg" xmlns:xlink="http://www.w3.org/1999/xlink">
<g id="graph0" class="graph" transform="scale(1 1) rotate(0) translate(4 129.49)">
<title>ReducePartitionBy</title>
<polygon fill="white" stroke="none" points="-4,4 -4,-129.49 343.38,-129.49 343.38,4 -4,4"/>
<!-- Vacant -->
<g id="node1" class="node">
<title>Vacant</title>
<ellipse fill="none" stroke="black" cx="293.13" cy="-46.25" rx="42.47" ry="42.47"/>
<ellipse fill="none" stroke="black" cx="293.13" cy="-46.25" rx="46.49" ry="46.49"/>
<text text-anchor="middle" x="293.13" y="-42.55" font-family="Times,serif" font-size="14.00">Vacant</text>
</g>
<!-- Vacant&#45;&gt;Vacant -->
<g id="edge4" class="edge">
<title>Vacant&#45;&gt;Vacant</title>
<path fill="none" stroke="black" d="M281.21,-91.57C282.14,-102.44 286.11,-110.49 293.13,-110.49 297.41,-110.49 300.55,-107.5 302.57,-102.71"/>
<polygon fill="black" stroke="black" points="305.96,-103.57 304.73,-93.05 299.13,-102.05 305.96,-103.57"/>
<text text-anchor="middle" x="293.13" y="-114.29" font-family="Times,serif" font-size="14.00">R?</text>
</g>
<!-- Unseen -->
<g id="node2" class="node">
<title>Unseen</title>
<ellipse fill="none" stroke="black" cx="46.15" cy="-46.25" rx="46.29" ry="46.29"/>
<text text-anchor="middle" x="46.15" y="-42.55" font-family="Times,serif" font-size="14.00">Unseen</text>
</g>
<!-- Chunk -->
<g id="node3" class="node">
<title>Chunk</title>
<ellipse fill="none" stroke="black" cx="169.59" cy="-46.25" rx="40.09" ry="40.09"/>
<text text-anchor="middle" x="169.59" y="-42.55" font-family="Times,serif" font-size="14.00">Chunk</text>
</g>
<!-- Unseen&#45;&gt;Chunk -->
<g id="edge1" class="edge">
<title>Unseen&#45;&gt;Chunk</title>
<path fill="none" stroke="black" d="M92.71,-46.25C100.85,-46.25 109.39,-46.25 117.67,-46.25"/>
<polygon fill="black" stroke="black" points="117.63,-49.75 127.63,-46.25 117.63,-42.75 117.63,-49.75"/>
</g>
<!-- Chunk&#45;&gt;Vacant -->
<g id="edge3" class="edge">
<title>Chunk&#45;&gt;Vacant</title>
<path fill="none" stroke="black" d="M210.05,-46.25C218.06,-46.25 226.63,-46.25 235.1,-46.25"/>
<polygon fill="black" stroke="black" points="235.02,-49.75 245.02,-46.25 235.02,-42.75 235.02,-49.75"/>
</g>
<!-- Chunk&#45;&gt;Chunk -->
<g id="edge2" class="edge">
<title>Chunk&#45;&gt;Chunk</title>
<path fill="none" stroke="black" d="M158.62,-85.2C159.1,-96.14 162.76,-104.54 169.59,-104.54 173.75,-104.54 176.74,-101.42 178.54,-96.51"/>
<polygon fill="black" stroke="black" points="181.98,-97.15 180.29,-86.69 175.09,-95.92 181.98,-97.15"/>
</g>
</g>
</svg>
