<?xml version="1.0" encoding="UTF-8" standalone="no"?>
<!DOCTYPE svg PUBLIC "-//W3C//DTD SVG 1.1//EN"
 "http://www.w3.org/Graphics/SVG/1.1/DTD/svg11.dtd">
<!-- Generated by graphviz version 7.0.5 (20221223.1930)
 -->
<!-- Title: ReduceSplitBy Pages: 1 -->
<svg width="539pt" height="201pt"
 viewBox="0.00 0.00 538.87 201.14" xmlns="http://www.w3.org/2000/svg" xmlns:xlink="http://www.w3.org/1999/xlink">
<g id="graph0" class="graph" transform="scale(1 1) rotate(0) translate(4 197.14)">
<title>ReduceSplitBy</title>
<polygon fill="white" stroke="none" points="-4,4 -4,-197.14 534.87,-197.14 534.87,4 -4,4"/>
<!-- PreVacant -->
<g id="node1" class="node">
<title>PreVacant</title>
<ellipse fill="none" stroke="black" cx="329.53" cy="-98.3" rx="57.7" ry="57.7"/>
<ellipse fill="none" stroke="black" cx="329.53" cy="-98.3" rx="61.69" ry="61.69"/>
<text text-anchor="middle" x="329.53" y="-94.6" font-family="Times,serif" font-size="14.00">PreVacant</text>
</g>
<!-- PreVacant&#45;&gt;PreVacant -->
<g id="edge8" class="edge">
<title>PreVacant&#45;&gt;PreVacant</title>
<path fill="none" stroke="black" d="M315.18,-158.53C316.9,-170.02 321.68,-178.14 329.53,-178.14 334.55,-178.14 338.32,-174.81 340.83,-169.39"/>
<polygon fill="black" stroke="black" points="344.14,-170.56 343.46,-159.99 337.4,-168.68 344.14,-170.56"/>
<text text-anchor="middle" x="329.53" y="-181.94" font-family="Times,serif" font-size="14.00">R</text>
</g>
<!-- Vacant -->
<g id="node2" class="node">
<title>Vacant</title>
<ellipse fill="none" stroke="black" cx="484.62" cy="-90.3" rx="42.47" ry="42.47"/>
<ellipse fill="none" stroke="black" cx="484.62" cy="-90.3" rx="46.49" ry="46.49"/>
<text text-anchor="middle" x="484.62" y="-86.6" font-family="Times,serif" font-size="14.00">Vacant</text>
</g>
<!-- PreVacant&#45;&gt;Vacant -->
<g id="edge5" class="edge">
<title>PreVacant:se&#45;&gt;Vacant:sw</title>
<path fill="none" stroke="black" d="M374.53,-54.3C398.97,-29.86 426.28,-20.55 451.62,-44.05 452.02,-44.43 452.24,-45.05 452.34,-45.84"/>
<polygon fill="black" stroke="black" points="448.84,-45.87 452.58,-55.78 455.83,-45.7 448.84,-45.87"/>
</g>
<!-- Vacant&#45;&gt;PreVacant -->
<g id="edge7" class="edge">
<title>Vacant&#45;&gt;PreVacant</title>
<path fill="none" stroke="black" d="M437.98,-92.68C426.92,-93.26 414.82,-93.89 402.86,-94.52"/>
<polygon fill="black" stroke="black" points="402.79,-91.02 392.98,-95.03 403.15,-98.01 402.79,-91.02"/>
<text text-anchor="middle" x="414.87" y="-97.1" font-family="Times,serif" font-size="14.00">R</text>
</g>
<!-- Vacant&#45;&gt;Vacant -->
<g id="edge6" class="edge">
<title>Vacant&#45;&gt;Vacant</title>
<path fill="none" stroke="black" d="M471.75,-135.33C472.7,-146.34 476.99,-154.54 484.62,-154.54 489.39,-154.54 492.85,-151.34 495.01,-146.25"/>
<polygon fill="black" stroke="black" points="498.35,-147.33 497.16,-136.8 491.53,-145.78 498.35,-147.33"/>
</g>
<!-- PreChunk -->
<g id="node3" class="node">
<title>PreChunk</title>
<ellipse fill="none" stroke="black" cx="56.54" cy="-83.3" rx="56.59" ry="56.59"/>
<text text-anchor="middle" x="56.54" y="-79.6" font-family="Times,serif" font-size="14.00">PreChunk</text>
</g>
<!-- PreChunk&#45;&gt;PreVacant -->
<g id="edge2" class="edge">
<title>PreChunk&#45;&gt;PreVacant</title>
<path fill="none" stroke="black" d="M110.92,-99.59C123.64,-102.79 137.25,-105.66 150.09,-107.3 185.05,-111.76 224.12,-110.48 256.77,-107.69"/>
<polygon fill="black" stroke="black" points="256.89,-111.19 266.52,-106.79 256.24,-104.22 256.89,-111.19"/>
</g>
<!-- Chunk -->
<g id="node4" class="node">
<title>Chunk</title>
<ellipse fill="none" stroke="black" cx="190.39" cy="-40.3" rx="40.09" ry="40.09"/>
<text text-anchor="middle" x="190.39" y="-36.6" font-family="Times,serif" font-size="14.00">Chunk</text>
</g>
<!-- PreChunk&#45;&gt;Chunk -->
<g id="edge1" class="edge">
<title>PreChunk&#45;&gt;Chunk</title>
<path fill="none" stroke="black" d="M110.79,-65.93C120.76,-62.68 131.13,-59.3 140.95,-56.1"/>
<polygon fill="black" stroke="black" points="141.88,-59.47 150.3,-53.04 139.71,-52.82 141.88,-59.47"/>
</g>
<!-- Chunk&#45;&gt;PreVacant -->
<g id="edge4" class="edge">
<title>Chunk&#45;&gt;PreVacant</title>
<path fill="none" stroke="black" d="M227.78,-55.69C238.33,-60.15 250.21,-65.17 262,-70.16"/>
<polygon fill="black" stroke="black" points="260.34,-73.26 270.91,-73.93 263.06,-66.81 260.34,-73.26"/>
</g>
<!-- Chunk&#45;&gt;Chunk -->
<g id="edge3" class="edge">
<title>Chunk&#45;&gt;Chunk</title>
<path fill="none" stroke="black" d="M179.42,-79.25C179.9,-90.2 183.55,-98.59 190.39,-98.59 194.55,-98.59 197.53,-95.47 199.34,-90.56"/>
<polygon fill="black" stroke="black" points="202.78,-91.2 201.09,-80.75 195.89,-89.98 202.78,-91.2"/>
</g>
</g>
</svg>
