<?xml version="1.0" encoding="UTF-8" standalone="no"?>
<!DOCTYPE svg PUBLIC "-//W3C//DTD SVG 1.1//EN"
 "http://www.w3.org/Graphics/SVG/1.1/DTD/svg11.dtd">
<!-- Generated by graphviz version 7.0.5 (20221223.1930)
 -->
<!-- Title: SingleStepConsecutive Pages: 1 -->
<svg width="686pt" height="184pt"
 viewBox="0.00 0.00 686.16 184.19" xmlns="http://www.w3.org/2000/svg" xmlns:xlink="http://www.w3.org/1999/xlink">
<g id="graph0" class="graph" transform="scale(1 1) rotate(0) translate(4 180.19)">
<title>SingleStepConsecutive</title>
<polygon fill="white" stroke="none" points="-4,4 -4,-180.19 682.16,-180.19 682.16,4 -4,4"/>
<!-- Buffer{N&#45;1} -->
<g id="node1" class="node">
<title>Buffer{N&#45;1}</title>
<ellipse fill="none" stroke="black" cx="606.56" cy="-71.59" rx="67.68" ry="67.68"/>
<ellipse fill="none" stroke="black" cx="606.56" cy="-71.59" rx="71.69" ry="71.69"/>
<text text-anchor="middle" x="606.56" y="-67.89" font-family="Times,serif" font-size="14.00">Buffer{N&#45;1}</text>
</g>
<!-- Buffer{N&#45;1}&#45;&gt;Buffer{N&#45;1} -->
<g id="edge5" class="edge">
<title>Buffer{N&#45;1}&#45;&gt;Buffer{N&#45;1}</title>
<path fill="none" stroke="black" d="M590.93,-141.84C593.17,-153.31 598.38,-161.19 606.56,-161.19 611.8,-161.19 615.83,-157.95 618.63,-152.61"/>
<polygon fill="black" stroke="black" points="621.9,-153.87 621.72,-143.27 615.25,-151.67 621.9,-153.87"/>
<text text-anchor="middle" x="606.56" y="-164.99" font-family="Times,serif" font-size="14.00">NTuple{N,Any}</text>
</g>
<!--  ...  -->
<g id="node2" class="node">
<title> ... </title>
<text text-anchor="middle" x="314.28" y="-67.89" font-family="Times,serif" font-size="14.00"> ... </text>
</g>
<!-- Buffer{N&#45;2} -->
<g id="node5" class="node">
<title>Buffer{N&#45;2}</title>
<ellipse fill="none" stroke="black" cx="430.37" cy="-71.59" rx="67.69" ry="67.69"/>
<text text-anchor="middle" x="430.37" y="-67.89" font-family="Times,serif" font-size="14.00">Buffer{N&#45;2}</text>
</g>
<!--  ... &#45;&gt;Buffer{N&#45;2} -->
<g id="edge3" class="edge">
<title> ... &#45;&gt;Buffer{N&#45;2}</title>
<path fill="none" stroke="black" d="M325.4,-71.59C331.89,-71.59 340.98,-71.59 351.11,-71.59"/>
<polygon fill="black" stroke="black" points="350.92,-75.09 360.92,-71.59 350.92,-68.09 350.92,-75.09"/>
</g>
<!-- Buffer{0} -->
<g id="node3" class="node">
<title>Buffer{0}</title>
<ellipse fill="none" stroke="black" cx="57.19" cy="-71.59" rx="57.39" ry="57.39"/>
<text text-anchor="middle" x="57.19" y="-67.89" font-family="Times,serif" font-size="14.00">Buffer{0}</text>
</g>
<!-- Buffer{1} -->
<g id="node4" class="node">
<title>Buffer{1}</title>
<ellipse fill="none" stroke="black" cx="208.58" cy="-71.59" rx="57.39" ry="57.39"/>
<text text-anchor="middle" x="208.58" y="-67.89" font-family="Times,serif" font-size="14.00">Buffer{1}</text>
</g>
<!-- Buffer{0}&#45;&gt;Buffer{1} -->
<g id="edge1" class="edge">
<title>Buffer{0}&#45;&gt;Buffer{1}</title>
<path fill="none" stroke="black" d="M114.67,-71.59C122.85,-71.59 131.34,-71.59 139.72,-71.59"/>
<polygon fill="black" stroke="black" points="139.51,-75.09 149.51,-71.59 139.51,-68.09 139.51,-75.09"/>
</g>
<!-- Buffer{1}&#45;&gt; ...  -->
<g id="edge2" class="edge">
<title>Buffer{1}&#45;&gt; ... </title>
<path fill="none" stroke="black" d="M266.29,-71.59C275.37,-71.59 284.26,-71.59 291.82,-71.59"/>
<polygon fill="black" stroke="black" points="291.56,-75.09 301.56,-71.59 291.56,-68.09 291.56,-75.09"/>
</g>
<!-- Buffer{N&#45;2}&#45;&gt;Buffer{N&#45;1} -->
<g id="edge4" class="edge">
<title>Buffer{N&#45;2}&#45;&gt;Buffer{N&#45;1}</title>
<path fill="none" stroke="black" d="M498.22,-71.59C506.4,-71.59 514.83,-71.59 523.2,-71.59"/>
<polygon fill="black" stroke="black" points="523.04,-75.09 533.04,-71.59 523.04,-68.09 523.04,-75.09"/>
</g>
</g>
</svg>
