<?xml version="1.0" encoding="UTF-8" standalone="no"?>
<!DOCTYPE svg PUBLIC "-//W3C//DTD SVG 1.1//EN"
 "http://www.w3.org/Graphics/SVG/1.1/DTD/svg11.dtd">
<!-- Generated by graphviz version 7.0.5 (20221223.1930)
 -->
<!-- Title: WordsXF Pages: 1 -->
<svg width="313pt" height="133pt"
 viewBox="0.00 0.00 313.34 133.49" xmlns="http://www.w3.org/2000/svg" xmlns:xlink="http://www.w3.org/1999/xlink">
<g id="graph0" class="graph" transform="scale(1 1) rotate(0) translate(4 129.49)">
<title>WordsXF</title>
<polygon fill="white" stroke="none" points="-4,4 -4,-129.49 309.34,-129.49 309.34,4 -4,4"/>
<!-- Vacant -->
<g id="node1" class="node">
<title>Vacant</title>
<ellipse fill="none" stroke="black" cx="220.84" cy="-46.25" rx="42.47" ry="42.47"/>
<ellipse fill="none" stroke="black" cx="220.84" cy="-46.25" rx="46.49" ry="46.49"/>
<text text-anchor="middle" x="220.84" y="-42.55" font-family="Times,serif" font-size="14.00">Vacant</text>
</g>
<!-- Vacant&#45;&gt;Vacant -->
<g id="edge3" class="edge">
<title>Vacant&#45;&gt;Vacant</title>
<path fill="none" stroke="black" d="M203.48,-89.79C204.4,-101.55 210.18,-110.49 220.84,-110.49 227.83,-110.49 232.73,-106.64 235.52,-100.67"/>
<polygon fill="black" stroke="black" points="238.85,-101.8 237.83,-91.26 232.05,-100.13 238.85,-101.8"/>
<text text-anchor="middle" x="220.84" y="-114.29" font-family="Times,serif" font-size="14.00">Union{Nothing,String}</text>
</g>
<!-- Chunk -->
<g id="node2" class="node">
<title>Chunk</title>
<ellipse fill="none" stroke="black" cx="40.3" cy="-46.25" rx="40.09" ry="40.09"/>
<text text-anchor="middle" x="40.3" y="-42.55" font-family="Times,serif" font-size="14.00">Chunk</text>
</g>
<!-- Chunk&#45;&gt;Vacant -->
<g id="edge2" class="edge">
<title>Chunk&#45;&gt;Vacant</title>
<path fill="none" stroke="black" d="M80.48,-46.25C104.64,-46.25 136.04,-46.25 162.91,-46.25"/>
<polygon fill="black" stroke="black" points="162.61,-49.75 172.61,-46.25 162.61,-42.75 162.61,-49.75"/>
<text text-anchor="middle" x="127.59" y="-50.05" font-family="Times,serif" font-size="14.00">Nothing</text>
</g>
<!-- Chunk&#45;&gt;Chunk -->
<g id="edge1" class="edge">
<title>Chunk&#45;&gt;Chunk</title>
<path fill="none" stroke="black" d="M23.93,-83.25C24.1,-95.13 29.55,-104.54 40.3,-104.54 47.35,-104.54 52.12,-100.49 54.61,-94.34"/>
<polygon fill="black" stroke="black" points="58.01,-95.21 56.39,-84.74 51.13,-93.94 58.01,-95.21"/>
<text text-anchor="middle" x="40.3" y="-108.34" font-family="Times,serif" font-size="14.00">Nothing</text>
</g>
</g>
</svg>
