<?xml version="1.0" encoding="UTF-8" standalone="no"?>
<!DOCTYPE svg PUBLIC "-//W3C//DTD SVG 1.1//EN"
 "http://www.w3.org/Graphics/SVG/1.1/DTD/svg11.dtd">
<!-- Generated by graphviz version 3.0.0 (20221109.1736)
 -->
<!-- Title: ReducePartitionBy Pages: 1 -->
<svg width="347pt" height="133pt"
 viewBox="0.00 0.00 347.38 133.49" xmlns="http://www.w3.org/2000/svg" xmlns:xlink="http://www.w3.org/1999/xlink">
<g id="graph0" class="graph" transform="scale(1 1) rotate(0) translate(4 129.49)">
<title>ReducePartitionBy</title>
<polygon fill="white" stroke="transparent" points="-4,4 -4,-129.49 343.38,-129.49 343.38,4 -4,4"/>
<!-- Vacant -->
<g id="node1" class="node">
<title>Vacant</title>
<ellipse fill="none" stroke="black" cx="293.13" cy="-46.25" rx="42.47" ry="42.47"/>
<ellipse fill="none" stroke="black" cx="293.13" cy="-46.25" rx="46.49" ry="46.49"/>
<text text-anchor="middle" x="293.13" y="-42.55" font-family="Times,serif" font-size="14.00">Vacant</text>
</g>
<!-- Vacant&#45;&gt;Vacant -->
<g id="edge4" class="edge">
<title>Vacant&#45;&gt;Vacant</title>
<path fill="none" stroke="black" d="M281.3,-90.98C282.12,-102.15 286.07,-110.49 293.13,-110.49 297.88,-110.49 301.21,-106.73 303.14,-100.87"/>
<polygon fill="black" stroke="black" points="306.6,-101.45 304.97,-90.98 299.71,-100.18 306.6,-101.45"/>
<text text-anchor="middle" x="293.13" y="-114.29" font-family="Times,serif" font-size="14.00">R?</text>
</g>
<!-- Unseen -->
<g id="node2" class="node">
<title>Unseen</title>
<ellipse fill="none" stroke="black" cx="46.15" cy="-46.25" rx="46.29" ry="46.29"/>
<text text-anchor="middle" x="46.15" y="-42.55" font-family="Times,serif" font-size="14.00">Unseen</text>
</g>
<!-- Chunk -->
<g id="node3" class="node">
<title>Chunk</title>
<ellipse fill="none" stroke="black" cx="169.59" cy="-46.25" rx="40.09" ry="40.09"/>
<text text-anchor="middle" x="169.59" y="-42.55" font-family="Times,serif" font-size="14.00">Chunk</text>
</g>
<!-- Unseen&#45;&gt;Chunk -->
<g id="edge1" class="edge">
<title>Unseen&#45;&gt;Chunk</title>
<path fill="none" stroke="black" d="M92.37,-46.25C100.99,-46.25 110.07,-46.25 118.83,-46.25"/>
<polygon fill="black" stroke="black" points="118.92,-49.75 128.92,-46.25 118.92,-42.75 118.92,-49.75"/>
</g>
<!-- Chunk&#45;&gt;Vacant -->
<g id="edge3" class="edge">
<title>Chunk&#45;&gt;Vacant</title>
<path fill="none" stroke="black" d="M210.05,-46.25C218.42,-46.25 227.41,-46.25 236.25,-46.25"/>
<polygon fill="black" stroke="black" points="236.53,-49.75 246.53,-46.25 236.53,-42.75 236.53,-49.75"/>
</g>
<!-- Chunk&#45;&gt;Chunk -->
<g id="edge2" class="edge">
<title>Chunk&#45;&gt;Chunk</title>
<path fill="none" stroke="black" d="M158.77,-85.2C159.24,-96.14 162.85,-104.54 169.59,-104.54 174.01,-104.54 177.09,-100.93 178.81,-95.35"/>
<polygon fill="black" stroke="black" points="182.31,-95.63 180.41,-85.2 175.39,-94.54 182.31,-95.63"/>
</g>
</g>
</svg>
