<?xml version="1.0" encoding="UTF-8" standalone="no"?>
<!DOCTYPE svg PUBLIC "-//W3C//DTD SVG 1.1//EN"
 "http://www.w3.org/Graphics/SVG/1.1/DTD/svg11.dtd">
<!-- Generated by graphviz version 3.0.0 (20221109.1736)
 -->
<!-- Title: ReduceSplitBy Pages: 1 -->
<svg width="539pt" height="201pt"
 viewBox="0.00 0.00 538.87 201.14" xmlns="http://www.w3.org/2000/svg" xmlns:xlink="http://www.w3.org/1999/xlink">
<g id="graph0" class="graph" transform="scale(1 1) rotate(0) translate(4 197.14)">
<title>ReduceSplitBy</title>
<polygon fill="white" stroke="transparent" points="-4,4 -4,-197.14 534.87,-197.14 534.87,4 -4,4"/>
<!-- PreVacant -->
<g id="node1" class="node">
<title>PreVacant</title>
<ellipse fill="none" stroke="black" cx="329.53" cy="-98.3" rx="57.7" ry="57.7"/>
<ellipse fill="none" stroke="black" cx="329.53" cy="-98.3" rx="61.69" ry="61.69"/>
<text text-anchor="middle" x="329.53" y="-94.6" font-family="Times,serif" font-size="14.00">PreVacant</text>
</g>
<!-- PreVacant&#45;&gt;PreVacant -->
<g id="edge8" class="edge">
<title>PreVacant&#45;&gt;PreVacant</title>
<path fill="none" stroke="black" d="M315.25,-158.53C316.95,-170.02 321.72,-178.14 329.53,-178.14 334.78,-178.14 338.65,-174.47 341.14,-168.59"/>
<polygon fill="black" stroke="black" points="344.63,-169.1 343.81,-158.53 337.86,-167.3 344.63,-169.1"/>
<text text-anchor="middle" x="329.53" y="-181.94" font-family="Times,serif" font-size="14.00">R</text>
</g>
<!-- Vacant -->
<g id="node2" class="node">
<title>Vacant</title>
<ellipse fill="none" stroke="black" cx="484.62" cy="-90.3" rx="42.47" ry="42.47"/>
<ellipse fill="none" stroke="black" cx="484.62" cy="-90.3" rx="46.49" ry="46.49"/>
<text text-anchor="middle" x="484.62" y="-86.6" font-family="Times,serif" font-size="14.00">Vacant</text>
</g>
<!-- PreVacant&#45;&gt;Vacant -->
<g id="edge5" class="edge">
<title>PreVacant:se&#45;&gt;Vacant:sw</title>
<path fill="none" stroke="black" d="M374.53,-54.3C398.97,-29.86 426.28,-20.55 451.62,-44.05 452.23,-44.61 452.41,-45.74 452.4,-47.12"/>
<polygon fill="black" stroke="black" points="448.9,-47.37 452.62,-57.3 455.9,-47.22 448.9,-47.37"/>
</g>
<!-- Vacant&#45;&gt;PreVacant -->
<g id="edge7" class="edge">
<title>Vacant&#45;&gt;PreVacant</title>
<path fill="none" stroke="black" d="M437.98,-92.68C426.58,-93.28 414.07,-93.93 401.75,-94.57"/>
<polygon fill="black" stroke="black" points="401.28,-91.09 391.47,-95.11 401.64,-98.08 401.28,-91.09"/>
<text text-anchor="middle" x="414.87" y="-97.1" font-family="Times,serif" font-size="14.00">R</text>
</g>
<!-- Vacant&#45;&gt;Vacant -->
<g id="edge6" class="edge">
<title>Vacant&#45;&gt;Vacant</title>
<path fill="none" stroke="black" d="M472.04,-135.03C472.92,-146.2 477.11,-154.54 484.62,-154.54 489.66,-154.54 493.21,-150.78 495.26,-144.92"/>
<polygon fill="black" stroke="black" points="498.71,-145.52 497.19,-135.03 491.84,-144.17 498.71,-145.52"/>
</g>
<!-- PreChunk -->
<g id="node3" class="node">
<title>PreChunk</title>
<ellipse fill="none" stroke="black" cx="56.54" cy="-83.3" rx="56.59" ry="56.59"/>
<text text-anchor="middle" x="56.54" y="-79.6" font-family="Times,serif" font-size="14.00">PreChunk</text>
</g>
<!-- PreChunk&#45;&gt;PreVacant -->
<g id="edge2" class="edge">
<title>PreChunk&#45;&gt;PreVacant</title>
<path fill="none" stroke="black" d="M110.92,-99.59C123.64,-102.79 137.25,-105.66 150.09,-107.3 185.5,-111.81 225.14,-110.45 258.05,-107.58"/>
<polygon fill="black" stroke="black" points="258.4,-111.06 268.03,-106.65 257.75,-104.09 258.4,-111.06"/>
</g>
<!-- Chunk -->
<g id="node4" class="node">
<title>Chunk</title>
<ellipse fill="none" stroke="black" cx="190.39" cy="-40.3" rx="40.09" ry="40.09"/>
<text text-anchor="middle" x="190.39" y="-36.6" font-family="Times,serif" font-size="14.00">Chunk</text>
</g>
<!-- PreChunk&#45;&gt;Chunk -->
<g id="edge1" class="edge">
<title>PreChunk&#45;&gt;Chunk</title>
<path fill="none" stroke="black" d="M110.41,-66.05C120.94,-62.62 131.94,-59.03 142.26,-55.67"/>
<polygon fill="black" stroke="black" points="143.5,-58.95 151.92,-52.52 141.32,-52.29 143.5,-58.95"/>
</g>
<!-- Chunk&#45;&gt;PreVacant -->
<g id="edge4" class="edge">
<title>Chunk&#45;&gt;PreVacant</title>
<path fill="none" stroke="black" d="M227.78,-55.69C238.65,-60.29 250.93,-65.48 263.07,-70.61"/>
<polygon fill="black" stroke="black" points="261.73,-73.85 272.3,-74.52 264.46,-67.4 261.73,-73.85"/>
</g>
<!-- Chunk&#45;&gt;Chunk -->
<g id="edge3" class="edge">
<title>Chunk&#45;&gt;Chunk</title>
<path fill="none" stroke="black" d="M179.57,-79.25C180.04,-90.2 183.65,-98.59 190.39,-98.59 194.81,-98.59 197.88,-94.98 199.61,-89.4"/>
<polygon fill="black" stroke="black" points="203.11,-89.68 201.21,-79.25 196.19,-88.59 203.11,-89.68"/>
</g>
</g>
</svg>
