<?xml version="1.0" encoding="UTF-8" standalone="no"?>
<!DOCTYPE svg PUBLIC "-//W3C//DTD SVG 1.1//EN"
 "http://www.w3.org/Graphics/SVG/1.1/DTD/svg11.dtd">
<!-- Generated by graphviz version 3.0.0 (20221109.1736)
 -->
<!-- Title: SingleStepConsecutive Pages: 1 -->
<svg width="686pt" height="184pt"
 viewBox="0.00 0.00 686.16 184.19" xmlns="http://www.w3.org/2000/svg" xmlns:xlink="http://www.w3.org/1999/xlink">
<g id="graph0" class="graph" transform="scale(1 1) rotate(0) translate(4 180.19)">
<title>SingleStepConsecutive</title>
<polygon fill="white" stroke="transparent" points="-4,4 -4,-180.19 682.16,-180.19 682.16,4 -4,4"/>
<!-- Buffer{N&#45;1} -->
<g id="node1" class="node">
<title>Buffer{N&#45;1}</title>
<ellipse fill="none" stroke="black" cx="606.56" cy="-71.59" rx="67.68" ry="67.68"/>
<ellipse fill="none" stroke="black" cx="606.56" cy="-71.59" rx="71.69" ry="71.69"/>
<text text-anchor="middle" x="606.56" y="-67.89" font-family="Times,serif" font-size="14.00">Buffer{N&#45;1}</text>
</g>
<!-- Buffer{N&#45;1}&#45;&gt;Buffer{N&#45;1} -->
<g id="edge5" class="edge">
<title>Buffer{N&#45;1}&#45;&gt;Buffer{N&#45;1}</title>
<path fill="none" stroke="black" d="M590.88,-141.46C593.07,-153.13 598.3,-161.19 606.56,-161.19 612.24,-161.19 616.49,-157.38 619.3,-151.21"/>
<polygon fill="black" stroke="black" points="622.7,-152.05 622.25,-141.46 616,-150.02 622.7,-152.05"/>
<text text-anchor="middle" x="606.56" y="-164.99" font-family="Times,serif" font-size="14.00">NTuple{N,Any}</text>
</g>
<!--  ...  -->
<g id="node2" class="node">
<title> ... </title>
<text text-anchor="middle" x="314.28" y="-67.89" font-family="Times,serif" font-size="14.00"> ... </text>
</g>
<!-- Buffer{N&#45;2} -->
<g id="node5" class="node">
<title>Buffer{N&#45;2}</title>
<ellipse fill="none" stroke="black" cx="430.37" cy="-71.59" rx="67.69" ry="67.69"/>
<text text-anchor="middle" x="430.37" y="-67.89" font-family="Times,serif" font-size="14.00">Buffer{N&#45;2}</text>
</g>
<!--  ... &#45;&gt;Buffer{N&#45;2} -->
<g id="edge3" class="edge">
<title> ... &#45;&gt;Buffer{N&#45;2}</title>
<path fill="none" stroke="black" d="M325.81,-71.59C332.54,-71.59 341.94,-71.59 352.36,-71.59"/>
<polygon fill="black" stroke="black" points="352.61,-75.09 362.61,-71.59 352.61,-68.09 352.61,-75.09"/>
</g>
<!-- Buffer{0} -->
<g id="node3" class="node">
<title>Buffer{0}</title>
<ellipse fill="none" stroke="black" cx="57.19" cy="-71.59" rx="57.39" ry="57.39"/>
<text text-anchor="middle" x="57.19" y="-67.89" font-family="Times,serif" font-size="14.00">Buffer{0}</text>
</g>
<!-- Buffer{1} -->
<g id="node4" class="node">
<title>Buffer{1}</title>
<ellipse fill="none" stroke="black" cx="208.58" cy="-71.59" rx="57.39" ry="57.39"/>
<text text-anchor="middle" x="208.58" y="-67.89" font-family="Times,serif" font-size="14.00">Buffer{1}</text>
</g>
<!-- Buffer{0}&#45;&gt;Buffer{1} -->
<g id="edge1" class="edge">
<title>Buffer{0}&#45;&gt;Buffer{1}</title>
<path fill="none" stroke="black" d="M114.67,-71.59C123.22,-71.59 132.12,-71.59 140.86,-71.59"/>
<polygon fill="black" stroke="black" points="141.03,-75.09 151.03,-71.59 141.03,-68.09 141.03,-75.09"/>
</g>
<!-- Buffer{1}&#45;&gt; ...  -->
<g id="edge2" class="edge">
<title>Buffer{1}&#45;&gt; ... </title>
<path fill="none" stroke="black" d="M265.98,-71.59C275.43,-71.59 284.67,-71.59 292.45,-71.59"/>
<polygon fill="black" stroke="black" points="292.64,-75.09 302.64,-71.59 292.64,-68.09 292.64,-75.09"/>
</g>
<!-- Buffer{N&#45;2}&#45;&gt;Buffer{N&#45;1} -->
<g id="edge4" class="edge">
<title>Buffer{N&#45;2}&#45;&gt;Buffer{N&#45;1}</title>
<path fill="none" stroke="black" d="M498.22,-71.59C506.93,-71.59 515.93,-71.59 524.84,-71.59"/>
<polygon fill="black" stroke="black" points="524.85,-75.09 534.85,-71.59 524.85,-68.09 524.85,-75.09"/>
</g>
</g>
</svg>
