<?xml version="1.0" encoding="UTF-8" standalone="no"?>
<!DOCTYPE svg PUBLIC "-//W3C//DTD SVG 1.1//EN"
 "http://www.w3.org/Graphics/SVG/1.1/DTD/svg11.dtd">
<!-- Generated by graphviz version 2.44.0 ()
 -->
<!-- Title: SingleStepConsecutive Pages: 1 -->
<svg width="591pt" height="161pt"
 viewBox="0.00 0.00 591.16 160.79" xmlns="http://www.w3.org/2000/svg" xmlns:xlink="http://www.w3.org/1999/xlink">
<g id="graph0" class="graph" transform="scale(1 1) rotate(0) translate(4 156.79)">
<title>SingleStepConsecutive</title>
<polygon fill="white" stroke="transparent" points="-4,4 -4,-156.79 587.16,-156.79 587.16,4 -4,4"/>
<!-- Buffer{N&#45;1} -->
<g id="node1" class="node">
<title>Buffer{N&#45;1}</title>
<ellipse fill="none" stroke="black" cx="523.27" cy="-59.9" rx="55.8" ry="55.8"/>
<ellipse fill="none" stroke="black" cx="523.27" cy="-59.9" rx="59.79" ry="59.79"/>
<text text-anchor="middle" x="523.27" y="-56.2" font-family="Times,serif" font-size="14.00">Buffer{N&#45;1}</text>
</g>
<!-- Buffer{N&#45;1}&#45;&gt;Buffer{N&#45;1} -->
<g id="edge5" class="edge">
<title>Buffer{N&#45;1}&#45;&gt;Buffer{N&#45;1}</title>
<path fill="none" stroke="black" d="M509.29,-118.32C510.92,-129.71 515.58,-137.79 523.27,-137.79 528.44,-137.79 532.24,-134.14 534.67,-128.29"/>
<polygon fill="black" stroke="black" points="538.13,-128.88 537.24,-118.32 531.35,-127.13 538.13,-128.88"/>
<text text-anchor="middle" x="523.27" y="-141.59" font-family="Times,serif" font-size="14.00">NTuple{N,Any}</text>
</g>
<!--  ...  -->
<g id="node2" class="node">
<title> ... </title>
<text text-anchor="middle" x="268.08" y="-56.2" font-family="Times,serif" font-size="14.00"> ... </text>
</g>
<!-- Buffer{N&#45;2} -->
<g id="node5" class="node">
<title>Buffer{N&#45;2}</title>
<ellipse fill="none" stroke="black" cx="370.48" cy="-59.9" rx="55.79" ry="55.79"/>
<text text-anchor="middle" x="370.48" y="-56.2" font-family="Times,serif" font-size="14.00">Buffer{N&#45;2}</text>
</g>
<!--  ... &#45;&gt;Buffer{N&#45;2} -->
<g id="edge3" class="edge">
<title> ... &#45;&gt;Buffer{N&#45;2}</title>
<path fill="none" stroke="black" d="M277.64,-59.9C284.11,-59.9 293.65,-59.9 304.17,-59.9"/>
<polygon fill="black" stroke="black" points="304.48,-63.4 314.48,-59.9 304.48,-56.4 304.48,-63.4"/>
</g>
<!-- Buffer{0} -->
<g id="node3" class="node">
<title>Buffer{0}</title>
<ellipse fill="none" stroke="black" cx="46.15" cy="-59.9" rx="46.29" ry="46.29"/>
<text text-anchor="middle" x="46.15" y="-56.2" font-family="Times,serif" font-size="14.00">Buffer{0}</text>
</g>
<!-- Buffer{1} -->
<g id="node4" class="node">
<title>Buffer{1}</title>
<ellipse fill="none" stroke="black" cx="175.44" cy="-59.9" rx="46.29" ry="46.29"/>
<text text-anchor="middle" x="175.44" y="-56.2" font-family="Times,serif" font-size="14.00">Buffer{1}</text>
</g>
<!-- Buffer{0}&#45;&gt;Buffer{1} -->
<g id="edge1" class="edge">
<title>Buffer{0}&#45;&gt;Buffer{1}</title>
<path fill="none" stroke="black" d="M92.38,-59.9C100.91,-59.9 109.92,-59.9 118.72,-59.9"/>
<polygon fill="black" stroke="black" points="118.92,-63.4 128.92,-59.9 118.92,-56.4 118.92,-63.4"/>
</g>
<!-- Buffer{1}&#45;&gt; ...  -->
<g id="edge2" class="edge">
<title>Buffer{1}&#45;&gt; ... </title>
<path fill="none" stroke="black" d="M221.76,-59.9C231.16,-59.9 240.55,-59.9 248.34,-59.9"/>
<polygon fill="black" stroke="black" points="248.39,-63.4 258.39,-59.9 248.39,-56.4 248.39,-63.4"/>
</g>
<!-- Buffer{N&#45;2}&#45;&gt;Buffer{N&#45;1} -->
<g id="edge4" class="edge">
<title>Buffer{N&#45;2}&#45;&gt;Buffer{N&#45;1}</title>
<path fill="none" stroke="black" d="M426.77,-59.9C435.29,-59.9 444.18,-59.9 452.95,-59.9"/>
<polygon fill="black" stroke="black" points="453.18,-63.4 463.18,-59.9 453.18,-56.4 453.18,-63.4"/>
</g>
</g>
</svg>
